<?xml version="1.0" encoding="UTF-8" standalone="no"?>
<!-- Created with Inkscape (http://www.inkscape.org/) -->

<svg
   xmlns:dc="http://purl.org/dc/elements/1.1/"
   xmlns:cc="http://creativecommons.org/ns#"
   xmlns:rdf="http://www.w3.org/1999/02/22-rdf-syntax-ns#"
   xmlns:svg="http://www.w3.org/2000/svg"
   xmlns="http://www.w3.org/2000/svg"
   xmlns:sodipodi="http://sodipodi.sourceforge.net/DTD/sodipodi-0.dtd"
   xmlns:inkscape="http://www.inkscape.org/namespaces/inkscape"
   width="210mm"
   height="297mm"
   id="svg2"
   version="1.1"
   inkscape:version="0.48.4 r9939"
   sodipodi:docname="Documento nuevo 1">
  <defs
     id="defs4" />
  <sodipodi:namedview
     id="base"
     pagecolor="#ffffff"
     bordercolor="#666666"
     borderopacity="1.0"
     inkscape:pageopacity="0.0"
     inkscape:pageshadow="2"
     inkscape:zoom="0.39580078"
     inkscape:cx="298.39326"
     inkscape:cy="520"
     inkscape:document-units="px"
     inkscape:current-layer="layer1"
     showgrid="false"
     inkscape:window-width="1366"
     inkscape:window-height="746"
     inkscape:window-x="-8"
     inkscape:window-y="-8"
     inkscape:window-maximized="1" />
  <metadata
     id="metadata7">
    <rdf:RDF>
      <cc:Work
         rdf:about="">
        <dc:format>image/svg+xml</dc:format>
        <dc:type
           rdf:resource="http://purl.org/dc/dcmitype/StillImage" />
        <dc:title></dc:title>
      </cc:Work>
    </rdf:RDF>
  </metadata>
  <g
     inkscape:label="Capa 1"
     inkscape:groupmode="layer"
     id="layer1">
    <g
       id="layer1-9"
       inkscape:label="Capa 1"
       transform="matrix(5.324,0,0,5.324,-1660.292,-2376.2029)">
      <path
         inkscape:connector-curvature="0"
         id="path4012"
         d="m 387.32383,629.55391 c -4.2967,-2.19095 -6.95583,-5.76337 -7.69906,-10.34338 -0.50531,-3.11384 -0.0738,-4.12799 3.52611,-8.28737 3.07096,-3.54821 4.10187,-5.59486 4.10187,-8.14334 0,-5.9877 -4.29041,-6.60925 -27.5,-3.98388 -7.15,0.80878 -13.47162,1.47928 -14.04805,1.49001 -0.70627,0.0131 -1.03237,-8.7039 -1,-26.73049 0.053,-29.51941 -0.57077,-33.20408 -5.96868,-35.25636 -3.62964,-1.37999 -3.94923,-1.31388 -7.30694,1.51144 -6.11088,5.14197 -13.92931,3.7237 -16.75511,-3.03938 -1.83897,-4.40127 -1.82402,-13.7861 0.0277,-17.36686 3.28399,-6.35053 12.61494,-8.55359 18.06636,-4.26551 3.33556,2.62375 7.49988,2.78475 10.44043,0.40364 1.93614,-1.56779 2.17121,-2.70291 2.12271,-10.25 -0.03,-4.66783 -0.50012,-11.15926 -1.04471,-14.4254 -0.54459,-3.26613 -0.88745,-6.01722 -0.76192,-6.11352 0.12553,-0.0963 5.17824,0.71157 11.22824,1.79527 6.38728,1.14411 16.09943,2.03039 23.16066,2.11352 11.58895,0.13643 12.2824,0.0292 14.75,-2.28115 3.26239,-3.05447 3.29197,-6.45195 0.0893,-10.25806 -3.77206,-4.48284 -3.51649,-10.78452 0.57707,-14.22903 3.91166,-3.29144 6.54538,-3.92863 14.00743,-3.38887 5.13133,0.37117 6.48047,0.9037 9.21356,3.63679 2.80842,2.80842 3.20194,3.86262 3.20194,8.57772 0,3.89455 -0.52812,5.95935 -1.91667,7.49368 -2.4552,2.71297 -2.4552,7.46724 0,10.19821 1.81802,2.02223 2.53428,2.10063 13.91667,1.52336 6.6,-0.33473 13.125,-0.7258 14.5,-0.86904 2.37603,-0.24753 2.53465,0.0619 3.19869,6.23955 0.38427,3.575 0.81238,12.74499 0.95134,20.37775 0.24474,13.44319 0.18025,13.93638 -2.05947,15.75 -3.78104,3.0617 -6.46865,2.36247 -10.84413,-2.82129 -3.84833,-4.55923 -4.14462,-4.70482 -10.35406,-5.08761 -5.46907,-0.33714 -6.8979,-0.0508 -9.89237,1.98225 -13.83713,9.39464 -10.41374,37.45831 4.81864,39.5014 5.45698,0.73193 8.4976,-0.16325 12.50464,-3.68149 4.11234,-3.61068 8.35637,-5.31823 11.35045,-4.56676 4.71509,1.18341 5.14096,10.87747 1.63421,37.19936 l -0.55336,4.1536 -19.2132,-0.1536 c -20.80386,-0.16633 -22.54138,0.22577 -22.54138,5.08682 0,1.37255 1.35,4.03311 3,5.91235 5.68651,6.47658 2.98416,15.57374 -5.96996,20.09722 -5.34292,2.69916 -10.31799,2.86493 -14.95896,0.49845 z"
         style="fill:#ad0000;fill-opacity:1" />
    </g>
  </g>
</svg>
